# xmcd
#
# Track frame offsets:
#	150
#	16281
#	32193
#	46568
#	61300
#	81226
#	99163
#	114959
#	131921
#	149410
#	165541
#	181453
#	195828
#	210560
#	230486
#	248423
#	264219
#	281181
#
# Disc length: 3982 seconds
#
# Revision: 2
# Processed by: cddbd v1.5.2PL0 Copyright (c) Steve Scherf et al.
# Submitted via: audiograbber 1.83.01
#
DISCID=eb0f8c12
DTITLE=Pop Hits Monthly - Country - 2004 September
DYEAR=2004
DGENRE=Karaoke
TTITLE0=Phil Vassar - In A Real Love
TTITLE1=Rascal Flatts - Feels Like Today
TTITLE2=Travis Tritt - The Girl's Gone Wild
TTITLE3=Alan Jackson - Too Much Of A Good Thing
TTITLE4=Mark Chesnutt - The Lord Loves The Drinkin' Man
TTITLE5=Anita Cochran and Conway Twitty - (I Wanna Hear) A Cheatin' Song
TTITLE6=Gary Allan - Nothing On But The Radio
TTITLE7=Kenny Rogers and W. Duncan  - My World Is Over
TTITLE8=Keith Urban - Days Go By
TTITLE9=Phil Vassar - In A Real Love Vocals
TTITLE10=Rascal Flatts - Feels Like Today {VT}
TTITLE11=Travis Tritt - The Girl's Gone Wild {VT}
TTITLE12=Alan Jackson - Too Much Of A Good Thing {VT}
TTITLE13=Mark Chesnutt - The Lord Loves The Drinkin' Man {VT}
TTITLE14=Anita Cochran and Conway Twitty - (I Wanna Hear) A Cheatin' Song {VT}
TTITLE15=Gary Allan - Nothing On But The Radio {VT}
TTITLE16=Kenny Rogers and W. Duncan - My World Is Over {VT}
TTITLE17=Keith Urban - Days Go By {VT}
EXTD=
EXTT0=
EXTT1=
EXTT2=
EXTT3=
EXTT4=
EXTT5=
EXTT6=
EXTT7=
EXTT8=
EXTT9=
EXTT10=
EXTT11=
EXTT12=
EXTT13=
EXTT14=
EXTT15=
EXTT16=
EXTT17=
PLAYORDER=
